# xmcd
#
# Track frame offsets: 
#        150
#        20556
#        37385
#        55829
#        70564
#        86322
#
# Disc length: 1369 seconds
#
# Revision: 0
# Processed by: cddbd v1.5.2PL0 Copyright (c) Steve Scherf et al.
# Submitted via: ExactAudioCopyFreeDBPlugin 1.0
#
DISCID=47055706
DTITLE=Caitlin Canty and Peter Bradley Adams - Down Like Silver
DYEAR=2011
DGENRE=Folk/Rock
TTITLE0=Wolves
TTITLE1=Lazy Snow
TTITLE2=Pasture
TTITLE3=Have I Loved
TTITLE4=Idaho
TTITLE5=Any Day
EXTD=
EXTT0=
EXTT1=
EXTT2=
EXTT3=
EXTT4=
EXTT5=
PLAYORDER=
